<svg width="52" height="52" viewBox="0 0 52 52" fill="none" xmlns="http://www.w3.org/2000/svg">
<g filter="url(#filter0_i_5649_7153)">
<rect width="52" height="52" rx="14" fill="#541409"/>
<rect x="0.5" y="0.5" width="51" height="51" rx="13.5" stroke="#EEE8E6"/>
<path d="M24.5 22.7769V20.7769C24.5 19.1331 24.5 18.3112 24.046 17.7581C23.9629 17.6568 23.8701 17.5639 23.7688 17.4808C23.2156 17.0269 22.3937 17.0269 20.75 17.0269C19.1063 17.0269 18.2844 17.0269 17.7312 17.4808C17.6299 17.5639 17.5371 17.6568 17.454 17.7581C17 18.3112 17 19.1331 17 20.7769V22.7769C17 24.4206 17 25.2425 17.454 25.7957C17.5371 25.897 17.6299 25.9898 17.7312 26.0729C18.2844 26.5269 19.1063 26.5269 20.75 26.5269C22.3937 26.5269 23.2156 26.5269 23.7688 26.0729C23.8701 25.9898 23.9629 25.897 24.046 25.7957C24.5 25.2425 24.5 24.4206 24.5 22.7769Z" stroke="white" stroke-width="1.5" stroke-linejoin="round"/>
<path d="M21.75 29.5269H19.75C19.0522 29.5269 18.7033 29.5269 18.4194 29.613C17.7802 29.8069 17.28 30.3071 17.0861 30.9463C17 31.2302 17 31.5791 17 32.2769C17 32.9747 17 33.3236 17.0861 33.6075C17.28 34.2467 17.7802 34.7469 18.4194 34.9408C18.7033 35.0269 19.0522 35.0269 19.75 35.0269H21.75C22.4478 35.0269 22.7967 35.0269 23.0806 34.9408C23.7198 34.7469 24.22 34.2467 24.4139 33.6075C24.5 33.3236 24.5 32.9747 24.5 32.2769C24.5 31.5791 24.5 31.2302 24.4139 30.9463C24.22 30.3071 23.7198 29.8069 23.0806 29.613C22.7967 29.5269 22.4478 29.5269 21.75 29.5269Z" stroke="white" stroke-width="1.5" stroke-linejoin="round"/>
<path d="M35 31.2769V29.2769C35 27.6332 35 26.8113 34.546 26.2581C34.4629 26.1568 34.3701 26.064 34.2688 25.9809C33.7156 25.5269 32.8937 25.5269 31.25 25.5269C29.6063 25.5269 28.7844 25.5269 28.2312 25.9809C28.1299 26.064 28.0371 26.1568 27.954 26.2581C27.5 26.8113 27.5 27.6332 27.5 29.2769V31.2769C27.5 32.9206 27.5 33.7425 27.954 34.2957C28.0371 34.397 28.1299 34.4898 28.2312 34.5729C28.7844 35.0269 29.6063 35.0269 31.25 35.0269C32.8937 35.0269 33.7156 35.0269 34.2688 34.5729C34.3701 34.4898 34.4629 34.397 34.546 34.2957C35 33.7425 35 32.9206 35 31.2769Z" stroke="white" stroke-width="1.5" stroke-linejoin="round"/>
<path d="M32.25 17.0269H30.25C29.5522 17.0269 29.2033 17.0269 28.9194 17.113C28.2802 17.3069 27.78 17.8071 27.5861 18.4463C27.5 18.7302 27.5 19.0791 27.5 19.7769C27.5 20.4746 27.5 20.8235 27.5861 21.1074C27.78 21.7466 28.2802 22.2468 28.9194 22.4407C29.2033 22.5269 29.5522 22.5269 30.25 22.5269H32.25C32.9478 22.5269 33.2967 22.5269 33.5806 22.4407C34.2198 22.2468 34.72 21.7466 34.9139 21.1074C35 20.8235 35 20.4746 35 19.7769C35 19.0791 35 18.7302 34.9139 18.4463C34.72 17.8071 34.2198 17.3069 33.5806 17.113C33.2967 17.0269 32.9478 17.0269 32.25 17.0269Z" stroke="white" stroke-width="1.5" stroke-linejoin="round"/>
</g>
<defs>
<filter id="filter0_i_5649_7153" x="0" y="-4" width="52" height="56" filterUnits="userSpaceOnUse" color-interpolation-filters="sRGB">
<feFlood flood-opacity="0" result="BackgroundImageFix"/>
<feBlend mode="normal" in="SourceGraphic" in2="BackgroundImageFix" result="shape"/>
<feColorMatrix in="SourceAlpha" type="matrix" values="0 0 0 0 0 0 0 0 0 0 0 0 0 0 0 0 0 0 127 0" result="hardAlpha"/>
<feOffset dy="-4"/>
<feGaussianBlur stdDeviation="4"/>
<feComposite in2="hardAlpha" operator="arithmetic" k2="-1" k3="1"/>
<feColorMatrix type="matrix" values="0 0 0 0 1 0 0 0 0 1 0 0 0 0 1 0 0 0 0.64 0"/>
<feBlend mode="normal" in2="shape" result="effect1_innerShadow_5649_7153"/>
</filter>
</defs>
</svg>
