<svg width="52" height="52" viewBox="0 0 52 52" fill="none" xmlns="http://www.w3.org/2000/svg">
<g filter="url(#filter0_i_5649_7178)">
<rect width="52" height="52" rx="14" fill="#541409"/>
<rect x="0.5" y="0.5" width="51" height="51" rx="13.5" stroke="#EEE8E6"/>
<path d="M25.6686 19.2389C25.8066 18.9562 26.1934 18.9562 26.3314 19.2389L27.1449 20.9065C27.1989 21.0172 27.3003 21.0942 27.4178 21.1137L29.1862 21.4079C29.4859 21.4578 29.6054 21.8414 29.391 22.0659L28.125 23.3918C28.0412 23.4797 28.0025 23.6041 28.021 23.7266L28.3 25.5771C28.3473 25.8905 28.0345 26.1277 27.7638 25.9837L26.1688 25.135C26.0628 25.0785 25.9372 25.0785 25.8312 25.135L24.2362 25.9837C23.9655 26.1277 23.6527 25.8905 23.7 25.5771L23.979 23.7266C23.9975 23.6041 23.9588 23.4797 23.875 23.3918L22.609 22.0659C22.3946 21.8414 22.5141 21.4578 22.8138 21.4079L24.5822 21.1137C24.6997 21.0942 24.8011 21.0172 24.8551 20.9065L25.6686 19.2389Z" stroke="white" stroke-width="1.5" stroke-linecap="round" stroke-linejoin="round"/>
<path d="M33 23.0269C33 26.8929 29.866 30.0269 26 30.0269C22.134 30.0269 19 26.8929 19 23.0269C19 19.1609 22.134 16.0269 26 16.0269C29.866 16.0269 33 19.1609 33 23.0269Z" stroke="white" stroke-width="1.5" stroke-linecap="round" stroke-linejoin="round"/>
<path d="M27 30.3693L28.6264 34.6782C28.9541 35.5464 29.118 35.9805 29.403 36.0269C29.6887 35.9847 30.0387 35.5073 30.3808 34.6441C30.6258 34.026 30.7482 33.717 31.0005 33.5504C31.0779 33.4993 31.1625 33.4589 31.252 33.4304C31.5436 33.3377 31.879 33.4284 32.5497 33.6097C33.2669 33.8036 33.7651 33.7495 33.9618 33.6097C34.0197 33.5686 33.9618 33.6066 33.9618 33.6066C34.0776 33.4012 33.9213 33.0808 33.6088 32.44L31.4561 28.0269" stroke="white" stroke-width="1.5" stroke-linecap="round" stroke-linejoin="round"/>
<path d="M25 30.369L23.3736 34.6772C23.0459 35.5452 22.7217 35.9805 22.4367 36.0269C22.151 35.9847 21.9799 35.5532 21.6378 34.6901C21.3929 34.0722 21.2518 33.7162 20.9995 33.5495C20.9221 33.4984 20.8375 33.4581 20.748 33.4296C20.4564 33.3369 20.121 33.4276 19.4503 33.6089C18.7331 33.8027 18.2349 33.7455 18.0382 33.6057C17.9224 33.4004 18.0787 33.08 18.3912 32.4393L20.5439 28.0269" stroke="white" stroke-width="1.5" stroke-linecap="round" stroke-linejoin="round"/>
</g>
<defs>
<filter id="filter0_i_5649_7178" x="0" y="-4" width="52" height="56" filterUnits="userSpaceOnUse" color-interpolation-filters="sRGB">
<feFlood flood-opacity="0" result="BackgroundImageFix"/>
<feBlend mode="normal" in="SourceGraphic" in2="BackgroundImageFix" result="shape"/>
<feColorMatrix in="SourceAlpha" type="matrix" values="0 0 0 0 0 0 0 0 0 0 0 0 0 0 0 0 0 0 127 0" result="hardAlpha"/>
<feOffset dy="-4"/>
<feGaussianBlur stdDeviation="4"/>
<feComposite in2="hardAlpha" operator="arithmetic" k2="-1" k3="1"/>
<feColorMatrix type="matrix" values="0 0 0 0 1 0 0 0 0 1 0 0 0 0 1 0 0 0 0.64 0"/>
<feBlend mode="normal" in2="shape" result="effect1_innerShadow_5649_7178"/>
</filter>
</defs>
</svg>
