<svg width="52" height="52" viewBox="0 0 52 52" fill="none" xmlns="http://www.w3.org/2000/svg">
<g filter="url(#filter0_i_5649_7198)">
<rect width="52" height="52" rx="14" fill="#541409"/>
<rect x="0.5" y="0.5" width="51" height="51" rx="13.5" stroke="#EEE8E6"/>
<path d="M31 24.8314C31 24.4857 31 24.3129 31.052 24.1589C31.2032 23.7113 31.6018 23.5376 32.0011 23.3557C32.45 23.1513 32.6744 23.049 32.8968 23.0311C33.1493 23.0106 33.4022 23.065 33.618 23.1861C33.9041 23.3467 34.1036 23.6518 34.3079 23.8999C35.2513 25.0457 35.7229 25.6187 35.8955 26.2505C36.0348 26.7603 36.0348 27.2935 35.8955 27.8033C35.6438 28.7248 34.8485 29.4973 34.2598 30.2123C33.9587 30.578 33.8081 30.7609 33.618 30.8676C33.4022 30.9887 33.1493 31.0431 32.8968 31.0227C32.6744 31.0047 32.45 30.9025 32.0011 30.698C31.6018 30.5161 31.2032 30.3425 31.052 29.8949C31 29.7409 31 29.5681 31 29.2224V24.8314Z" stroke="white" stroke-width="1.5"/>
<path d="M21 24.8315C21 24.3963 20.9878 24.0051 20.6359 23.6991C20.5079 23.5878 20.3382 23.5105 19.9989 23.3559C19.55 23.1514 19.3256 23.0492 19.1032 23.0312C18.4359 22.9773 18.0769 23.4327 17.6921 23.9C16.7488 25.0459 16.2771 25.6188 16.1045 26.2506C15.9652 26.7605 15.9652 27.2937 16.1045 27.8035C16.3562 28.725 17.1515 29.4974 17.7402 30.2125C18.1113 30.6632 18.4658 31.0744 19.1032 31.0229C19.3256 31.0049 19.55 30.9026 19.9989 30.6982C20.3382 30.5436 20.5079 30.4663 20.6359 30.355C20.9878 30.049 21 29.6579 21 29.2226V24.8315Z" stroke="white" stroke-width="1.5"/>
<path d="M19 23.0269C19 19.7131 22.134 17.0269 26 17.0269C29.866 17.0269 33 19.7131 33 23.0269" stroke="white" stroke-width="1.5"/>
<path d="M33 31.0269V31.8269C33 33.5942 31.2091 35.0269 29 35.0269H27" stroke="white" stroke-width="1.5"/>
</g>
<defs>
<filter id="filter0_i_5649_7198" x="0" y="-4" width="52" height="56" filterUnits="userSpaceOnUse" color-interpolation-filters="sRGB">
<feFlood flood-opacity="0" result="BackgroundImageFix"/>
<feBlend mode="normal" in="SourceGraphic" in2="BackgroundImageFix" result="shape"/>
<feColorMatrix in="SourceAlpha" type="matrix" values="0 0 0 0 0 0 0 0 0 0 0 0 0 0 0 0 0 0 127 0" result="hardAlpha"/>
<feOffset dy="-4"/>
<feGaussianBlur stdDeviation="4"/>
<feComposite in2="hardAlpha" operator="arithmetic" k2="-1" k3="1"/>
<feColorMatrix type="matrix" values="0 0 0 0 1 0 0 0 0 1 0 0 0 0 1 0 0 0 0.64 0"/>
<feBlend mode="normal" in2="shape" result="effect1_innerShadow_5649_7198"/>
</filter>
</defs>
</svg>
