<svg width="38" height="40" viewBox="0 0 38 40" fill="none" xmlns="http://www.w3.org/2000/svg">
    <g clip-path="url(#clip0_4488_853)">
    <path d="M0.000299453 1.18446e-05C1.36315 -0.00237055 2.726 -0.00419914 4.08886 -0.00529364C4.25006 -0.00542357 4.41126 -0.00555805 4.57246 -0.00569534C4.60455 -0.00572259 4.63664 -0.00574984 4.6697 -0.00577792C5.18807 -0.00622898 5.70645 -0.00704759 6.22482 -0.00800403C6.75743 -0.00897848 7.29003 -0.00955331 7.82264 -0.00976358C8.15082 -0.00990555 8.47899 -0.0103526 8.80716 -0.0112003C9.03275 -0.011753 9.25833 -0.0119146 9.48392 -0.0117805C9.61373 -0.0117145 9.74352 -0.0118096 9.87333 -0.0123731C11.7634 -0.020158 13.4061 0.554197 14.7644 1.87014C15.5808 2.67209 16.1446 3.75874 16.3902 4.86365C16.3955 4.8871 16.4008 4.91056 16.4063 4.93472C16.5351 5.55968 16.5323 6.19272 16.5312 6.82738C16.5311 6.95888 16.5313 7.09038 16.5315 7.22188C16.5318 7.45177 16.5318 7.68165 16.5317 7.91154C16.5315 8.25341 16.5317 8.59527 16.532 8.93714C16.5325 9.51257 16.5327 10.088 16.5328 10.6634C16.5328 11.4496 16.5333 12.2358 16.534 13.022C16.5343 13.3888 16.5346 13.7556 16.5349 14.1223C16.5349 14.159 16.535 14.1957 16.535 14.2336C16.5357 15.1065 16.5361 15.9795 16.5366 16.8524C16.5366 16.8906 16.5366 16.9288 16.5366 16.9681C16.5371 17.8587 16.5374 18.7493 16.5378 19.6399C16.5379 19.9488 16.538 20.2578 16.5381 20.5668C16.5381 20.6049 16.5381 20.643 16.5381 20.6823C16.5384 21.5535 16.5388 22.4248 16.5395 23.296C16.5396 23.3326 16.5396 23.3693 16.5396 23.4071C16.5399 23.7731 16.5402 24.1391 16.5406 24.5051C16.5407 24.6852 16.5409 24.8653 16.5411 25.0454C16.5411 25.0809 16.5411 25.1163 16.5412 25.1528C16.5416 25.7221 16.5417 26.2913 16.5417 26.8605C16.5416 27.433 16.5419 28.0054 16.5426 28.5778C16.543 28.9175 16.5431 29.2571 16.5428 29.5967C16.5426 29.8241 16.5428 30.0515 16.5433 30.2788C16.5435 30.408 16.5437 30.5372 16.5433 30.6664C16.5414 31.3979 16.5823 32.1132 16.7549 32.8269C16.7637 32.8637 16.7726 32.9006 16.7817 32.9386C16.912 33.4599 17.0916 33.9725 17.3371 34.4524C17.3484 34.4744 17.3596 34.4964 17.3712 34.519C17.4243 34.6203 17.4809 34.7155 17.5454 34.8102C17.6136 34.9163 17.6592 34.9932 17.6821 35.1169C17.619 35.3012 17.5183 35.447 17.4009 35.6017C17.368 35.6474 17.368 35.6474 17.3344 35.694C17.2878 35.7571 17.2401 35.8185 17.1899 35.8788C17.0648 35.8377 17.0563 35.8141 16.993 35.7048C16.976 35.6755 16.9589 35.6462 16.9413 35.6161C16.9233 35.5842 16.9053 35.5523 16.8867 35.5195C16.868 35.4866 16.8492 35.4536 16.8299 35.4197C16.2735 34.4313 15.9048 33.3855 15.7377 32.2662C15.7293 32.21 15.7293 32.21 15.7207 32.1526C15.6302 31.4937 15.638 30.8292 15.6383 30.1658C15.6384 30.0353 15.6382 29.9047 15.6381 29.7741C15.6378 29.5458 15.6377 29.3175 15.6377 29.0892C15.6377 28.7498 15.6375 28.4103 15.6372 28.0708C15.6368 27.5345 15.6365 26.9981 15.6363 26.4617C15.6359 25.6103 15.6352 24.7588 15.6345 23.9074C15.6342 23.5794 15.6339 23.2514 15.6336 22.9234C15.6335 22.887 15.6335 22.8505 15.6335 22.813C15.6327 21.9466 15.632 21.0802 15.6313 20.2139C15.6313 20.157 15.6313 20.157 15.6313 20.0991C15.6306 19.2149 15.63 18.3308 15.6296 17.4467C15.6295 17.4087 15.6295 17.3706 15.6295 17.3314C15.6294 17.0248 15.6292 16.7181 15.6291 16.4115C15.6285 15.1465 15.6275 13.8816 15.6261 12.6166C15.6259 12.438 15.6258 12.2593 15.6256 12.0806C15.6255 12.0454 15.6255 12.0102 15.6255 11.974C15.6249 11.4087 15.6247 10.8435 15.6246 10.2782C15.6246 9.71002 15.6242 9.14186 15.6234 8.5737C15.6229 8.23642 15.6227 7.89915 15.623 7.56187C15.6231 7.33628 15.6228 7.11069 15.6223 6.8851C15.622 6.75677 15.6218 6.62845 15.6222 6.50012C15.6234 5.98682 15.6168 5.4898 15.5026 4.98702C15.4949 4.95285 15.4871 4.91867 15.4791 4.88345C15.4604 4.80507 15.4387 4.72852 15.4147 4.65153C15.4061 4.62356 15.3975 4.59559 15.3886 4.56677C15.2173 4.04279 14.9622 3.5215 14.6238 3.08226C14.591 3.0392 14.591 3.0392 14.5576 2.99528C13.6655 1.862 12.389 1.08856 10.934 0.898585C9.8503 0.770651 8.71275 0.995714 7.83934 1.66235C7.69306 1.78353 7.55508 1.9127 7.41751 2.0433C7.3944 2.06388 7.37129 2.08446 7.34748 2.10567C6.70828 2.69042 6.34658 3.65131 6.28297 4.49109C6.27927 4.61927 6.27863 4.74705 6.27935 4.87528C6.27924 4.92435 6.27908 4.97342 6.27889 5.02249C6.27848 5.15617 6.27872 5.28983 6.27907 5.42351C6.27934 5.56939 6.279 5.71527 6.27873 5.86115C6.27835 6.11644 6.27836 6.37173 6.27863 6.62703C6.27903 7.00668 6.27883 7.38633 6.2785 7.76598C6.27795 8.4442 6.278 9.12242 6.2783 9.80064C6.27857 10.3943 6.27864 10.988 6.27851 11.5817C6.2785 11.6211 6.27849 11.6605 6.27848 11.7011C6.27845 11.8611 6.27842 12.0211 6.27838 12.181C6.27806 13.6815 6.27835 15.1819 6.27892 16.6824C6.27942 18.0145 6.27938 19.3465 6.27887 20.6786C6.27831 22.1759 6.27808 23.6733 6.27841 25.1707C6.27844 25.3305 6.27848 25.4902 6.27851 25.65C6.27852 25.6893 6.27853 25.7287 6.27853 25.7692C6.27865 26.3622 6.27851 26.9552 6.27825 27.5483C6.27795 28.223 6.27802 28.8978 6.27859 29.5725C6.2789 29.9498 6.27892 30.327 6.27853 30.7043C6.27829 30.9567 6.27844 31.2092 6.27889 31.4616C6.27914 31.6052 6.27923 31.7487 6.27885 31.8922C6.27699 32.6448 6.29654 33.3892 6.49475 34.1212C6.5038 34.1555 6.51285 34.1898 6.52218 34.2251C6.96789 35.8638 7.9811 37.4175 9.48693 38.2873C11.2233 39.2615 13.4607 39.3688 15.3707 38.8708C16.3175 38.6124 17.1016 38.245 17.8227 37.5758C17.8538 37.5478 17.8538 37.5478 17.8856 37.5194C18.8511 36.62 19.4583 35.2894 19.7868 34.0455C19.7965 34.0097 19.8061 33.9739 19.8161 33.9371C20.0031 33.1843 20.0178 32.4154 20.0156 31.6449C20.0153 31.5063 20.0157 31.3677 20.0159 31.2292C20.0163 30.9872 20.0163 30.7452 20.016 30.5033C20.0156 30.1434 20.0158 29.7836 20.0162 29.4238C20.0167 28.8181 20.0168 28.2124 20.0166 27.6068C20.0163 26.7794 20.0168 25.9521 20.0174 25.1248C20.0177 24.7388 20.018 24.3527 20.0182 23.9667C20.0182 23.928 20.0183 23.8894 20.0183 23.8496C20.0189 22.9312 20.0191 22.0129 20.0193 21.0946C20.0193 21.0545 20.0194 21.0143 20.0194 20.9729C20.0195 20.3214 20.0196 19.6698 20.0198 19.0183C20.0199 18.4075 20.02 17.7967 20.0201 17.1859C20.0201 17.1457 20.0201 17.1056 20.0201 17.0642C20.0203 16.147 20.0206 15.2299 20.0212 14.3127C20.0213 14.2741 20.0213 14.2356 20.0213 14.1958C20.0216 13.8107 20.0218 13.4256 20.0221 13.0405C20.0227 12.2141 20.0231 11.3878 20.0228 10.5615C20.0227 9.9593 20.0228 9.3571 20.0234 8.7549C20.0237 8.39748 20.0237 8.04006 20.0233 7.68264C20.0231 7.44353 20.0232 7.20443 20.0237 6.96533C20.0239 6.82935 20.024 6.69337 20.0236 6.55739C20.0218 5.87371 20.0352 5.20474 20.2416 4.54547C20.2508 4.51538 20.2599 4.4853 20.2693 4.4543C20.2966 4.36608 20.3249 4.27824 20.3537 4.19049C20.3618 4.16568 20.3699 4.14087 20.3782 4.11531C20.885 2.60058 22.065 1.38733 23.4823 0.65802C23.5033 0.647089 23.5243 0.636157 23.546 0.624893C24.4698 0.152036 25.4925 -0.00644768 26.5233 -0.00415281C26.5731 -0.00416795 26.623 -0.00419835 26.6728 -0.00424248C26.8084 -0.00431924 26.9441 -0.00418233 27.0797 -0.00400774C27.2265 -0.00385725 27.3732 -0.00390886 27.52 -0.0039351C27.7738 -0.0039532 28.0277 -0.00384516 28.2815 -0.0036498C28.6485 -0.00336754 29.0155 -0.00327807 29.3825 -0.00323463C29.9781 -0.00315896 30.5736 -0.00292883 31.1691 -0.00260078C31.7474 -0.00228256 32.3257 -0.00203758 32.904 -0.00189055C32.9397 -0.00188145 32.9754 -0.00187235 33.0121 -0.00186298C33.1912 -0.00181778 33.3702 -0.00177402 33.5492 -0.00173096C35.0329 -0.00137234 36.5166 -0.000762698 38.0003 1.18446e-05C37.9916 0.108314 37.9818 0.216494 37.9717 0.324687C37.9693 0.355491 37.9668 0.386294 37.9643 0.418031C37.9614 0.447496 37.9586 0.47696 37.9557 0.507317C37.9533 0.534521 37.9509 0.561725 37.9484 0.589754C37.93 0.65802 37.93 0.65802 37.8245 0.727285C37.7437 0.749881 37.6623 0.770546 37.5807 0.790055C36.9657 0.945989 36.4696 1.24941 35.9966 1.66235C35.9708 1.68485 35.945 1.70735 35.9185 1.73053C34.8612 2.7135 34.146 4.37738 34.0951 5.80684C34.0937 5.91678 34.0935 6.02668 34.0937 6.13663C34.0936 6.20007 34.0936 6.20007 34.0934 6.26479C34.0933 6.38212 34.0932 6.49945 34.0933 6.61679C34.0933 6.74447 34.0931 6.87216 34.0929 6.99984C34.0926 7.22363 34.0925 7.44742 34.0924 7.67121C34.0923 8.00403 34.092 8.33684 34.0916 8.66966C34.0911 9.22978 34.0906 9.78989 34.0903 10.35C34.0898 11.151 34.089 11.9519 34.0881 12.7529C34.0878 13.0745 34.0874 13.396 34.0871 13.7176C34.087 13.7712 34.087 13.7712 34.087 13.8259C34.0861 14.6765 34.0853 15.5272 34.0845 16.3778C34.0845 16.415 34.0845 16.4523 34.0844 16.4906C34.0837 17.3582 34.0829 18.2258 34.0823 19.0933C34.0823 19.1306 34.0822 19.1679 34.0822 19.2063C34.0821 19.3942 34.0819 19.582 34.0818 19.7699C34.0817 19.8071 34.0817 19.8442 34.0817 19.8825C34.0816 19.9574 34.0816 20.0324 34.0815 20.1073C34.0806 21.3476 34.0794 22.5878 34.078 23.8281C34.0778 24.0035 34.0776 24.1789 34.0774 24.3544C34.0773 24.4062 34.0773 24.4062 34.0773 24.459C34.0766 25.0131 34.0763 25.5671 34.076 26.1211C34.0758 26.6789 34.0753 27.2367 34.0745 27.7945C34.0741 28.1252 34.0738 28.4559 34.0738 28.7867C34.0738 29.0084 34.0736 29.2301 34.0731 29.4519C34.0729 29.5777 34.0727 29.7035 34.0729 29.8293C34.0739 30.6385 34.0684 31.4637 33.9182 32.2619C33.9107 32.3027 33.9033 32.3435 33.8956 32.3855C33.5945 33.9495 32.9077 35.4423 31.8837 36.6753C31.8655 36.6974 31.8472 36.7194 31.8283 36.7421C31.4239 37.2241 30.9816 37.679 30.4776 38.0606C30.4432 38.0878 30.4088 38.1149 30.3734 38.1429C29.1495 39.1033 27.6637 39.7097 26.1187 39.9307C26.0911 39.9348 26.0634 39.9389 26.0349 39.943C24.1138 40.2121 22.0696 39.8001 20.3888 38.8572C20.4378 38.748 20.4952 38.6749 20.5813 38.5915C20.6049 38.5685 20.6285 38.5455 20.6527 38.5218C20.6773 38.4982 20.7019 38.4746 20.7272 38.4502C20.752 38.4261 20.7768 38.4019 20.8024 38.377C20.8636 38.3176 20.9249 38.2583 20.9864 38.1991C21.1022 38.244 21.2159 38.2915 21.329 38.3424C23.3311 39.2308 25.5839 39.4178 27.6624 38.6459C28.7499 38.2289 29.7067 37.6469 30.5479 36.8485C30.5664 36.8311 30.5849 36.8136 30.6039 36.7957C30.8504 36.5618 31.0781 36.3204 31.2861 36.052C31.303 36.0303 31.3199 36.0086 31.3373 35.9863C32.4617 34.5327 33.1567 32.7033 33.1539 30.8664C33.1539 30.8229 33.154 30.7794 33.1541 30.7346C33.1543 30.6143 33.1542 30.494 33.1542 30.3737C33.1542 30.2427 33.1543 30.1116 33.1545 29.9806C33.1548 29.7209 33.1548 29.4612 33.1549 29.2014C33.1549 28.8903 33.1551 28.5791 33.1554 28.2679C33.1559 27.5159 33.1561 26.7639 33.1563 26.0119C33.1564 25.6561 33.1565 25.3002 33.1566 24.9443C33.1571 23.7258 33.1575 22.5073 33.1576 21.2887C33.1576 21.2122 33.1576 21.1358 33.1576 21.0593C33.1576 20.9827 33.1576 20.906 33.1576 20.8294C33.1576 20.6756 33.1577 20.5218 33.1577 20.3681C33.1577 20.3299 33.1577 20.2918 33.1577 20.2525C33.1578 19.0164 33.1584 17.7804 33.1592 16.5443C33.1601 15.2369 33.1605 13.9296 33.1606 12.6222C33.1606 12.4786 33.1606 12.335 33.1606 12.1915C33.1606 12.1384 33.1606 12.1384 33.1606 12.0843C33.1607 11.516 33.161 10.9476 33.1616 10.3793C33.1621 9.80779 33.1622 9.2363 33.1619 8.6648C33.1617 8.32553 33.1619 7.98627 33.1624 7.647C33.1628 7.42002 33.1627 7.19305 33.1624 6.96608C33.1622 6.83698 33.1622 6.70789 33.1626 6.5788C33.1679 4.93137 32.7048 3.53546 31.519 2.337C30.5473 1.39246 29.1677 0.866041 27.8104 0.852826C26.3724 0.868338 25.0525 1.38224 24.0096 2.35499C23.9629 2.39758 23.9629 2.39758 23.9154 2.44103C22.993 3.31108 22.3964 4.62312 22.3541 5.88128C22.3528 5.99459 22.3526 6.10785 22.3528 6.22116C22.3527 6.26469 22.3527 6.30821 22.3526 6.35305C22.3524 6.47367 22.3524 6.59429 22.3525 6.71491C22.3525 6.84622 22.3524 6.97753 22.3522 7.10884C22.352 7.33894 22.3519 7.56903 22.3519 7.79913C22.3519 8.14132 22.3516 8.48351 22.3514 8.8257C22.3509 9.36625 22.3506 9.90681 22.3504 10.4474C22.3501 11.3061 22.3494 12.1647 22.3486 13.0234C22.3483 13.354 22.348 13.6846 22.3477 14.0152C22.3477 14.0519 22.3477 14.0886 22.3476 14.1265C22.3469 15.0008 22.3462 15.8751 22.3455 16.7494C22.3455 16.7877 22.3454 16.8259 22.3454 16.8654C22.3447 17.7572 22.3441 18.6491 22.3437 19.5409C22.3437 19.5793 22.3437 19.6176 22.3437 19.657C22.3435 19.9659 22.3434 20.2747 22.3432 20.5836C22.3426 21.8586 22.3417 23.1336 22.3403 24.4086C22.3401 24.5889 22.3399 24.7692 22.3397 24.9495C22.3397 24.985 22.3397 25.0205 22.3396 25.0571C22.339 25.6267 22.3388 26.1964 22.3388 26.7661C22.3387 27.3394 22.3383 27.9128 22.3375 28.4861C22.337 28.8261 22.3369 29.1662 22.3371 29.5062C22.3372 29.7341 22.337 29.962 22.3364 30.1898C22.3361 30.3192 22.336 30.4485 22.3363 30.5779C22.342 32.9998 21.614 35.2816 19.9118 37.0695C19.8433 37.1422 19.7782 37.2157 19.7143 37.2922C19.622 37.3998 19.519 37.49 19.41 37.5809C19.36 37.6233 19.3109 37.6667 19.2628 37.7113C17.4924 39.3511 15.045 40.0712 12.6546 40.0027C10.7318 39.9292 8.88292 39.1946 7.38235 38.026C7.34588 37.9979 7.3094 37.9697 7.27181 37.9408C6.74497 37.5183 6.24175 37.0336 5.84315 36.4905C5.7982 36.4298 5.75185 36.3704 5.70519 36.311C4.56486 34.8442 3.92976 32.9429 3.93281 31.1005C3.93275 31.057 3.93268 31.0135 3.93261 30.9687C3.93242 30.8485 3.93246 30.7284 3.93252 30.6083C3.93256 30.4773 3.93239 30.3464 3.93224 30.2154C3.93202 29.9861 3.93192 29.7569 3.9319 29.5276C3.93188 29.1866 3.93166 28.8456 3.93139 28.5046C3.93096 27.9659 3.93066 27.4272 3.93043 26.8885C3.93008 26.0331 3.9294 25.1776 3.92862 24.3222C3.92832 23.9928 3.92803 23.6635 3.92774 23.3341C3.92771 23.2975 3.92768 23.2609 3.92764 23.2232C3.92687 22.3525 3.92617 21.4817 3.92552 20.611C3.92549 20.5729 3.92546 20.5348 3.92543 20.4955C3.92476 19.6071 3.92416 18.7187 3.92373 17.8302C3.92371 17.792 3.92369 17.7538 3.92367 17.7145C3.92352 17.4066 3.92338 17.0987 3.92323 16.7909C3.92263 15.5205 3.92167 14.2501 3.92031 12.9797C3.92012 12.8001 3.91993 12.6206 3.91974 12.441C3.91971 12.4057 3.91967 12.3704 3.91963 12.334C3.91906 11.7662 3.91887 11.1985 3.91882 10.6307C3.91877 10.0597 3.91834 9.48869 3.91753 8.91766C3.91706 8.5788 3.91688 8.23994 3.91712 7.90108C3.91726 7.67425 3.91701 7.44741 3.91646 7.22058C3.91615 7.09165 3.91601 6.96273 3.91634 6.83381C3.92049 5.05219 3.47938 3.35193 2.28522 1.97404C2.26773 1.95216 2.25024 1.93029 2.23222 1.90775C2.07654 1.71582 1.88363 1.57015 1.68763 1.41993C1.65795 1.39626 1.62826 1.3726 1.59768 1.34823C1.1426 1.0002 0.624107 0.825311 0.0706047 0.692653C0.0586472 0.622706 0.0469895 0.55271 0.0354521 0.482696C0.0256643 0.424236 0.0256643 0.424236 0.0156787 0.364595C0.000200952 0.241654 -0.000747728 0.123748 0.000299453 1.18446e-05Z" fill="#22000C"/>
    </g>
    <defs>
    <clipPath id="clip0_4488_853">
    <rect width="38" height="40" fill="white"/>
    </clipPath>
    </defs>
    </svg>
    